<svg xmlns="http://www.w3.org/2000/svg" viewBox="0 0 1200 630" width="1200" height="630">
  <rect width="1200" height="630" fill="#0D1117"/>
  <g opacity="0.045" transform="translate(700,40) scale(1.05)"><g transform="translate(256,256) scale(0.9) translate(-256,-256)">
  <path d="M60 452 L256 60 L452 452" fill="none" stroke="#FFFFFF" stroke-width="48"
        stroke-linecap="butt" stroke-linejoin="miter"/>
  <path d="M256 113.7 L209.8 206 L302.2 206 Z" fill="#FFFFFF"/><rect x="194.8" y="236" width="122.3" height="24" rx="3" fill="#FFFFFF"/><rect x="169.8" y="286" width="172.3" height="24" rx="3" fill="#FFFFFF"/><rect x="144.8" y="336" width="222.3" height="24" rx="3" fill="#FFFFFF"/><rect x="119.8" y="386" width="272.3" height="24" rx="3" fill="#FFFFFF"/></g></g>
  <g transform="translate(84,132) scale(0.72)"><g transform="translate(256,256) scale(0.9) translate(-256,-256)">
  <path d="M60 452 L256 60 L452 452" fill="none" stroke="#2F81F7" stroke-width="48"
        stroke-linecap="butt" stroke-linejoin="miter"/>
  <path d="M256 113.7 L209.8 206 L302.2 206 Z" fill="#E0B341"/><rect x="194.8" y="236" width="122.3" height="24" rx="3" fill="#2F81F7"/><rect x="169.8" y="286" width="172.3" height="24" rx="3" fill="#2F81F7"/><rect x="144.8" y="336" width="222.3" height="24" rx="3" fill="#2F81F7"/><rect x="119.8" y="386" width="272.3" height="24" rx="3" fill="#2F81F7"/></g></g>
  <text x="470" y="292" fill="#F7F7F7" font-family="Inter, system-ui, sans-serif"
        font-size="76" font-weight="700" letter-spacing="12">ANABASIS</text>
  <text x="474" y="348" fill="#2F81F7" font-family="Inter, system-ui, sans-serif"
        font-size="26" letter-spacing="6">RISE. PROGRESS. BECOME.</text>
  <rect x="474" y="386" width="88" height="4" rx="2" fill="#E0B341"/>
  <text x="474" y="440" fill="#8A97A8" font-family="Inter, system-ui, sans-serif"
        font-size="27">Weighted calisthenics &amp; skill progression · offline-first</text>
  <text x="474" y="484" fill="#5C6B7E" font-family="Inter, system-ui, sans-serif"
        font-size="24" letter-spacing="1">anabasis.axonos.dev</text>
</svg>
